# xmcd CD database file
#
# Track frame offsets:
#	150
#	12587
#	26690
#	41106
#	54791
#	68629
#	82144
#	96331
#	110520
#	124766
#	138173
#	151192
#
# Disc length: 2183 seconds
#
# Revision: 0
# Processed by: cddbd v1.5.2PL0 Copyright (c) Steve Scherf et al.
# Submitted via: CDex 1.51
#
DISCID=9b08850c
DTITLE=Big Band Love Songs - I Get A Kick Out Of You
DYEAR=2006
DGENRE=Jazz
TTITLE0=Rosemary Clooney - I Get A Kick Out Of You
TTITLE1=Benny Goodman and Ella Fitzgerald - Goodnight, My Love
TTITLE2=Glenn Miller and Ray Eberle - The Nearness Of You
TTITLE3=Louis Armstrong - I'm In The Mood For Love
TTITLE4=Jimmy Dorsey and Bob Eberly - Blue Champagne
TTITLE5=Billie Holiday and Teddy Wilson - My Man
TTITLE6=Johnny Mercer, Jo Stafford, The Pied Pipers - Candy
TTITLE7=Artie Shaw - Indian Love Call
TTITLE8=Harry James - Lament To Love
TTITLE9=Ray Anthony and Dick Noel - Count Every Star
TTITLE10=Larry Clinton - My Reverie
TTITLE11=Ozzie Nelson and Harriet Hilliard - Says My Heart
EXTD=YEAR: 2006
EXTT0=
EXTT1=
EXTT2=
EXTT3=
EXTT4=
EXTT5=
EXTT6=
EXTT7=
EXTT8=
EXTT9=
EXTT10=
EXTT11=
PLAYORDER=
